<?xml version="1.0" encoding="UTF-8"?>
<svg xmlns="http://www.w3.org/2000/svg" version="1.1" width="300" height="300" viewBox="0 0 300 300"><rect x="0" y="0" width="300" height="300" fill="#ffffff"/><g transform="scale(14.286)"><g transform="translate(0,0)"><path fill-rule="evenodd" d="M12 0L12 2L11 2L11 1L10 1L10 4L9 4L9 3L8 3L8 5L9 5L9 6L8 6L8 7L9 7L9 6L10 6L10 7L11 7L11 6L12 6L12 7L13 7L13 6L12 6L12 5L13 5L13 0ZM11 3L11 4L10 4L10 6L11 6L11 5L12 5L12 3ZM0 8L0 9L2 9L2 8ZM5 8L5 9L4 9L4 10L0 10L0 13L1 13L1 11L3 11L3 12L2 12L2 13L4 13L4 12L6 12L6 13L8 13L8 16L9 16L9 14L11 14L11 15L12 15L12 14L13 14L13 15L14 15L14 16L13 16L13 17L12 17L12 16L10 16L10 17L9 17L9 19L8 19L8 21L10 21L10 20L12 20L12 21L13 21L13 20L15 20L15 19L16 19L16 18L18 18L18 17L20 17L20 16L21 16L21 15L18 15L18 17L16 17L16 13L15 13L15 12L17 12L17 13L18 13L18 14L21 14L21 11L20 11L20 10L21 10L21 9L20 9L20 10L19 10L19 9L18 9L18 8L16 8L16 10L14 10L14 9L12 9L12 8L11 8L11 9L10 9L10 10L12 10L12 11L11 11L11 13L9 13L9 10L8 10L8 11L7 11L7 10L6 10L6 9L8 9L8 8ZM4 10L4 11L5 11L5 10ZM13 10L13 11L14 11L14 10ZM16 10L16 11L17 11L17 10ZM6 11L6 12L7 12L7 11ZM18 11L18 12L19 12L19 13L20 13L20 12L19 12L19 11ZM11 13L11 14L12 14L12 13ZM13 13L13 14L14 14L14 15L15 15L15 13ZM14 16L14 17L15 17L15 16ZM10 17L10 19L9 19L9 20L10 20L10 19L11 19L11 17ZM14 18L14 19L15 19L15 18ZM19 18L19 19L20 19L20 20L21 20L21 18ZM17 19L17 20L16 20L16 21L17 21L17 20L18 20L18 19ZM0 0L0 7L7 7L7 0ZM1 1L1 6L6 6L6 1ZM2 2L2 5L5 5L5 2ZM14 0L14 7L21 7L21 0ZM15 1L15 6L20 6L20 1ZM16 2L16 5L19 5L19 2ZM0 14L0 21L7 21L7 14ZM1 15L1 20L6 20L6 15ZM2 16L2 19L5 19L5 16Z" fill="#000000"/></g></g></svg>
